<?xml version="1.0" encoding="UTF-8" standalone="no"?>
<svg
   xmlns="http://www.w3.org/2000/svg"
   width="30"
   height="16"
   viewBox="0 0 30 16"
   id="svg-file-shp">
  <text
     x="9"
     y="11"
     style="font-size:9px;font-weight:bold;font-family:sans-serif;fill:#ffffff"
     text-anchor="start">SHP</text>
  <path
     d="M 2.34375,2.1875 A 0.82341756,0.82341756 0 0 0 1.6875,3 l 0,1.9375 A 0.82341756,0.82341756 0 0 0 0.75,5.0625 L 0.0625,5.75 a 0.82341756,0.82341756 0 0 0 0,1.1875 l 2,1.96875 0.34375,0.375 a 0.82341756,0.82341756 0 0 0 1.1875,0 L 3.9375,8.9375 l 0,-0.03125 2,-1.96875 a 0.82341756,0.82341756 0 0 0 0,-1.1875 L 5.25,5.0625 A 0.82341756,0.82341756 0 0 0 4.3125,4.90625 L 4.3125,3 A 0.82341756,0.82341756 0 0 0 3.5,2.1875 l -1,0 a 0.82341756,0.82341756 0 0 0 -0.15625,0 z"
     style="fill:#000000"/>
  <path
     d="m 2.5,3 0,3.8125 -1.15625,-1.15625 -0.6875,0.6875 2,2 0.34375,0.375 0.34375,-0.375 2,-2 L 4.65625,5.65625 3.5,6.8125 3.5,3 2.5,3 z"
     style="fill:#ffffff"/>
</svg>
